<svg width="82" height="81" viewBox="0 0 82 81" fill="none" xmlns="http://www.w3.org/2000/svg">
<g clip-path="url(#clip0_145_621)">
<rect width="82" height="81" rx="40.5" fill="#5FAF86"/>
<path d="M66.625 81H15.375C6.88297 81 0 74.201 0 65.8125V15.1875C0 6.79903 6.88297 0 15.375 0H66.625C75.117 0 82 6.79903 82 15.1875V65.8125C82 74.201 75.117 81 66.625 81Z" fill="#DFEDE6"/>
<path d="M31.1779 38.8116H26.9062C26.1993 38.8116 25.625 39.3783 25.625 40.0773V44.2968C25.625 44.9952 26.1993 45.5625 26.9062 45.5625H31.1779C31.8855 45.5625 32.4592 44.9952 32.4592 44.2968V40.0773C32.4592 39.3783 31.8855 38.8116 31.1779 38.8116Z" fill="#5FAF86"/>
<path d="M31.1779 48.9366H26.9062C26.1993 48.9366 25.625 49.5033 25.625 50.2023V54.4218C25.625 55.1202 26.1993 55.6875 26.9062 55.6875H31.1779C31.8855 55.6875 32.4592 55.1202 32.4592 54.4218V50.2023C32.4592 49.5033 31.8855 48.9366 31.1779 48.9366Z" fill="#5FAF86"/>
<path d="M43.1349 38.8116H38.8633C38.1557 38.8116 37.582 39.3783 37.582 40.0773V44.2968C37.582 44.9952 38.1557 45.5625 38.8633 45.5625H43.1349C43.8419 45.5625 44.4162 44.9952 44.4162 44.2968V40.0773C44.4162 39.3783 43.8419 38.8116 43.1349 38.8116Z" fill="#5FAF86"/>
<path d="M43.1349 48.9366H38.8633C38.1557 48.9366 37.582 49.5033 37.582 50.2023V54.4218C37.582 55.1202 38.1557 55.6875 38.8633 55.6875H43.1349C43.8419 55.6875 44.4162 55.1202 44.4162 54.4218V50.2023C44.4162 49.5033 43.8419 48.9366 43.1349 48.9366Z" fill="#22A562"/>
<path d="M55.092 38.8116H50.8203C50.1127 38.8116 49.5391 39.3783 49.5391 40.0773V44.2968C49.5391 44.9952 50.1127 45.5625 50.8203 45.5625H55.092C55.7989 45.5625 56.3732 44.9952 56.3732 44.2968V40.0773C56.3732 39.3783 55.7989 38.8116 55.092 38.8116Z" fill="#5FAF86"/>
<path d="M56.375 25.3125H25.625C22.7985 25.3125 20.5 27.583 20.5 30.375V55.6875C20.5 58.4795 22.7985 60.75 25.625 60.75H56.375C59.2015 60.75 61.5 58.4795 61.5 55.6875V30.375C61.5 27.583 59.2015 25.3125 56.375 25.3125ZM58.0842 55.6875C58.0842 56.6188 57.3178 57.3758 56.375 57.3758H25.625C24.6822 57.3758 23.9158 56.6188 23.9158 55.6875V37.1919H58.0817V55.6875H58.0842Z" fill="#22A562"/>
<path d="M30.7504 20.25H29.0412C28.0984 20.25 27.332 21.0046 27.332 21.9383V28.6891C27.332 29.6204 28.0959 30.3775 29.0412 30.3775H30.7504C31.6932 30.3775 32.4595 29.6229 32.4595 28.6891V21.9383C32.4595 21.0046 31.6932 20.25 30.7504 20.25Z" fill="#5FAF86"/>
<path d="M52.9574 20.25H51.2482C50.3054 20.25 49.5391 21.0046 49.5391 21.9383V28.6891C49.5391 29.6204 50.3054 30.375 51.2482 30.375H52.9574C53.9002 30.375 54.6666 29.6204 54.6666 28.6867V21.9383C54.6641 21.0046 53.9002 20.25 52.9574 20.25Z" fill="#5FAF86"/>
</g>
<defs>
<clipPath id="clip0_145_621">
<rect width="82" height="81" rx="40.5" fill="white"/>
</clipPath>
</defs>
</svg>
