<svg width="55" height="55" viewBox="0 0 55 55" fill="none" xmlns="http://www.w3.org/2000/svg">
<g clip-path="url(#clip0_128_602)">
<g opacity="0.1">
<path d="M27.5 55C42.6878 55 55 42.6878 55 27.5C55 12.3122 42.6878 0 27.5 0C12.3122 0 0 12.3122 0 27.5C0 42.6878 12.3122 55 27.5 55Z" fill="#22A562"/>
</g>
<path d="M33.6594 27.5221C33.306 28.2711 33.1062 29.0833 33.0718 29.9108C33.0375 30.7383 33.1692 31.5643 33.4594 32.3401H29.5894C29.577 32.305 29.5699 32.2682 29.5684 32.2311C29.427 31.3751 29.5055 30.4973 29.7964 29.6801C30.0964 28.8341 30.5564 27.9661 30.8264 27.0321C30.9968 26.0819 30.9069 25.1033 30.5664 24.2001C30.5104 25.1308 30.2826 26.0432 29.8944 26.8911C29.5254 27.7371 28.9714 28.4751 28.5064 29.3541C28.0408 30.2677 27.8008 31.2796 27.8064 32.3051V32.3381H21.4404C21.806 29.7487 22.8254 27.2951 24.4024 25.2091L21.2024 25.4811C20.9464 25.5001 20.6892 25.4666 20.4465 25.3827C20.2039 25.2988 19.981 25.1662 19.7914 24.9931C19.6023 24.8191 19.4513 24.6078 19.348 24.3725C19.2447 24.1372 19.1914 23.883 19.1914 23.6261V22.6951C19.1939 22.066 19.3997 21.4546 19.7782 20.9522C20.1567 20.4497 20.6875 20.0831 21.2914 19.9071L26.7444 18.1771V15.7911C26.7453 15.6408 26.7871 15.4937 26.8653 15.3654C26.9436 15.2372 27.0553 15.1326 27.1884 15.0631C27.3242 14.9942 27.4766 14.9648 27.6283 14.9783C27.78 14.9917 27.9248 15.0474 28.0464 15.1391L30.4664 16.9511C32.1738 18.0408 33.4344 19.7059 34.0199 21.6449C34.6055 23.5839 34.4772 25.6685 33.6584 27.5211L33.6594 27.5221Z" fill="#22A562"/>
<path d="M35.7165 38.307H19.9825C19.7666 38.307 19.5596 38.2213 19.4069 38.0686C19.2542 37.9159 19.1685 37.7089 19.1685 37.493V36.138C19.1567 35.6043 19.3453 35.0855 19.6969 34.6839C20.0486 34.2823 20.5379 34.0269 21.0685 33.968H34.6315C35.162 34.0271 35.6512 34.2826 36.0028 34.6841C36.3544 35.0857 36.543 35.6044 36.5315 36.138V37.494C36.5314 37.6009 36.5102 37.7067 36.4691 37.8054C36.4281 37.9042 36.368 37.9938 36.2924 38.0693C36.2167 38.1448 36.1269 38.2047 36.0281 38.2454C35.9293 38.2862 35.8234 38.3071 35.7165 38.307Z" fill="#5FAF86"/>
<path d="M37.889 41.0211H17.814C17.5981 41.0211 17.3911 40.9353 17.2384 40.7827C17.0858 40.63 17 40.423 17 40.2071V38.5791C17 38.0752 17.2002 37.5919 17.5565 37.2356C17.9128 36.8793 18.3961 36.6791 18.9 36.6791H36.8C37.3039 36.6791 37.7872 36.8793 38.1435 37.2356C38.4998 37.5919 38.7 38.0752 38.7 38.5791V40.2071C38.7 40.4224 38.6147 40.629 38.4626 40.7816C38.3106 40.9342 38.1044 41.0203 37.889 41.0211Z" fill="#5FAF86"/>
</g>
<defs>
<clipPath id="clip0_128_602">
<rect width="55" height="55" fill="white"/>
</clipPath>
</defs>
</svg>
