<svg width="82" height="81" viewBox="0 0 82 81" fill="none" xmlns="http://www.w3.org/2000/svg">
<g clip-path="url(#clip0_145_645)">
<rect width="82" height="81" rx="40.5" fill="#5FAF86"/>
<path d="M66.625 81H15.375C6.88297 81 0 74.201 0 65.8125V15.1875C0 6.79903 6.88297 0 15.375 0H66.625C75.117 0 82 6.79903 82 15.1875V65.8125C82 74.201 75.117 81 66.625 81Z" fill="#DFEDE6"/>
<path d="M39.2897 60.75C42.3827 60.75 44.9709 58.5729 45.5652 55.6875H33.0117C33.6086 58.5729 36.1967 60.75 39.2897 60.75Z" fill="#5FAF86"/>
<path d="M51.2723 40.5C51.2642 40.5 51.2592 40.5 51.2517 40.5C44.6584 40.5 39.2925 35.202 39.2925 28.6867C39.2925 26.897 39.7104 25.2037 40.4355 23.6798C40.0589 23.6446 39.6791 23.6217 39.2925 23.6217C32.6892 23.6217 27.3333 28.9091 27.3333 35.435V40.1403C27.3333 43.4793 25.8519 46.631 23.2537 48.8026C22.3879 49.5343 22.0031 50.6985 22.3134 51.8325C22.6801 53.1563 23.9995 53.9992 25.3883 53.9992H53.1917C54.6469 53.9992 56.0207 53.0679 56.3154 51.6601C56.5431 50.5719 56.1515 49.4811 55.295 48.7723C52.8094 46.7119 51.3749 43.6894 51.2723 40.5Z" fill="#22A562"/>
<path d="M59.7926 28.6867C59.7926 33.3463 55.9689 37.1234 51.2518 37.1234C46.5347 37.1234 42.7109 33.3463 42.7109 28.6867C42.7109 24.0271 46.5347 20.25 51.2518 20.25C55.9689 20.25 59.7926 24.0271 59.7926 28.6867Z" fill="#5FAF86"/>
</g>
<defs>
<clipPath id="clip0_145_645">
<rect width="82" height="81" rx="40.5" fill="white"/>
</clipPath>
</defs>
</svg>
