<svg width="61" height="61" viewBox="0 0 61 61" fill="none" xmlns="http://www.w3.org/2000/svg">
<g clip-path="url(#clip0_145_614)">
<rect width="61" height="61" rx="30.5" fill="#5FAF86"/>
<path d="M49.5625 61H11.4375C5.12019 61 0 55.8798 0 49.5625V11.4375C0 5.12019 5.12019 0 11.4375 0H49.5625C55.8798 0 61 5.12019 61 11.4375V49.5625C61 55.8798 55.8798 61 49.5625 61Z" fill="#DFEDE6"/>
<path d="M35.584 19.6973V19.0625C35.584 16.9656 33.8683 15.25 31.7715 15.25H19.0625C16.9656 15.25 15.25 16.9656 15.25 19.0625V41.9375C15.25 44.0344 16.9656 45.75 19.0625 45.75H31.7715C33.8683 45.75 35.584 44.0344 35.584 41.9375V33.6777H33.0429V40.6679H17.7929V19.0625C17.7929 18.3629 18.3648 17.791 19.0644 17.791H31.7734C32.473 17.791 33.0448 18.3629 33.0448 19.0625V19.6973H35.584Z" fill="#22A562"/>
<path d="M25.416 35.5821C26.8194 35.5821 27.9571 34.4444 27.9571 33.041C27.9571 31.6377 26.8194 30.5 25.416 30.5C24.0127 30.5 22.875 31.6377 22.875 33.041C22.875 34.4444 24.0127 35.5821 25.416 35.5821Z" fill="#22A562"/>
<path d="M30.4981 40.3496V40.6679H20.332V40.3496C20.332 38.4185 21.8952 36.8554 23.8262 36.8554H27.0039C28.9349 36.8535 30.4981 38.4166 30.4981 40.3496Z" fill="#22A562"/>
<path d="M44.7969 31.7715C44.5948 31.7715 44.3928 31.7067 44.225 31.5808L41.9165 29.85C41.7698 30.9346 40.8376 31.7715 39.7129 31.7715H32.7227C31.497 31.7715 30.5 30.7726 30.5 29.5469V23.5098C30.5 22.631 31.0833 21.6035 32.7246 21.6035H39.7148C40.8986 21.6035 41.8708 22.5338 41.9356 23.7023L44.1888 21.8247C44.4709 21.5864 44.8674 21.5368 45.2029 21.6931C45.5365 21.8513 45.75 22.1868 45.75 22.5567V30.8164C45.75 31.1767 45.546 31.5084 45.2239 31.6685C45.0885 31.7372 44.9417 31.7715 44.7969 31.7715Z" fill="#5FAF86"/>
</g>
<defs>
<clipPath id="clip0_145_614">
<rect width="61" height="61" rx="30.5" fill="white"/>
</clipPath>
</defs>
</svg>
