<svg width="55" height="55" viewBox="0 0 55 55" fill="none" xmlns="http://www.w3.org/2000/svg">
<g clip-path="url(#clip0_128_622)">
<g opacity="0.1">
<path d="M27.5 55C42.6878 55 55 42.6878 55 27.5C55 12.3122 42.6878 0 27.5 0C12.3122 0 0 12.3122 0 27.5C0 42.6878 12.3122 55 27.5 55Z" fill="#22A562"/>
</g>
<path d="M25.5854 21.76V17.175C25.4944 17.167 25.4064 17.147 25.3134 17.147H16.0914C15.5875 17.147 15.1042 17.3472 14.7479 17.7035C14.3916 18.0598 14.1914 18.5431 14.1914 19.047V27.185C14.1913 27.2919 14.2122 27.3978 14.2531 27.4966C14.294 27.5955 14.3539 27.6852 14.4295 27.7609C14.5051 27.8365 14.5949 27.8964 14.6937 27.9373C14.7926 27.9781 14.8985 27.9991 15.0054 27.999C15.1657 27.9987 15.3224 27.9518 15.4564 27.864L18.1794 26.056C18.3995 25.9077 18.659 25.8289 18.9244 25.83H25.3144C25.7236 25.8293 26.1282 25.744 26.5028 25.5795C26.8775 25.415 27.214 25.1748 27.4914 24.874C26.9192 24.579 26.4389 24.1327 26.1028 23.5836C25.7667 23.0345 25.5878 22.4037 25.5854 21.76Z" fill="#22A562"/>
<path d="M39.4179 25.83C39.2573 25.8301 39.1004 25.7824 38.9669 25.693L36.2589 23.888C36.0366 23.7388 35.7747 23.6594 35.5069 23.66H29.1109C28.8614 23.66 28.6144 23.6109 28.3838 23.5154C28.1533 23.4199 27.9439 23.28 27.7674 23.1035C27.591 22.9271 27.451 22.7176 27.3556 22.4871C27.2601 22.2566 27.2109 22.0095 27.2109 21.76V16.878C27.2109 16.6285 27.2601 16.3814 27.3556 16.1509C27.451 15.9204 27.591 15.711 27.7674 15.5345C27.9439 15.3581 28.1533 15.2181 28.3838 15.1227C28.6144 15.0272 28.8614 14.978 29.1109 14.978H38.3349C38.8388 14.978 39.3221 15.1782 39.6784 15.5345C40.0348 15.8908 40.2349 16.3741 40.2349 16.878V25.016C40.2351 25.123 40.2141 25.2289 40.1732 25.3277C40.1324 25.4265 40.0724 25.5163 39.9968 25.5919C39.9212 25.6675 39.8314 25.7275 39.7326 25.7683C39.6338 25.8092 39.5279 25.8302 39.4209 25.83H39.4179Z" fill="#22A562"/>
<path d="M20.1613 34.509C21.9589 34.509 23.4163 33.0517 23.4163 31.254C23.4163 29.4563 21.9589 27.999 20.1613 27.999C18.3636 27.999 16.9062 29.4563 16.9062 31.254C16.9062 33.0517 18.3636 34.509 20.1613 34.509Z" fill="#5FAF86"/>
<path d="M34.2667 34.509C36.0644 34.509 37.5217 33.0517 37.5217 31.254C37.5217 29.4563 36.0644 27.999 34.2667 27.999C32.469 27.999 31.0117 29.4563 31.0117 31.254C31.0117 33.0517 32.469 34.509 34.2667 34.509Z" fill="#5FAF86"/>
<path d="M23.1434 35.595H17.1744C16.3833 35.5958 15.6249 35.9105 15.0656 36.47C14.5064 37.0294 14.1919 37.788 14.1914 38.579V40.207C14.1914 40.4229 14.2772 40.63 14.4298 40.7826C14.5825 40.9353 14.7895 41.021 15.0054 41.021H25.3134C25.5293 41.021 25.7363 40.9353 25.889 40.7826C26.0416 40.63 26.1274 40.4229 26.1274 40.207V38.579C26.1269 37.7878 25.8123 37.0291 25.2528 36.4696C24.6933 35.9101 23.9346 35.5956 23.1434 35.595Z" fill="#5FAF86"/>
<path d="M37.2489 35.595H31.2799C30.4888 35.5958 29.7304 35.9105 29.1711 36.47C28.6118 37.0294 28.2974 37.788 28.2969 38.579V40.207C28.2969 40.3139 28.3179 40.4198 28.3588 40.5185C28.3997 40.6173 28.4597 40.707 28.5353 40.7826C28.6109 40.8582 28.7006 40.9182 28.7994 40.9591C28.8981 41 29.004 41.021 29.1109 41.021H39.4189C39.5258 41.021 39.6316 41 39.7304 40.9591C39.8291 40.9182 39.9189 40.8582 39.9945 40.7826C40.07 40.707 40.13 40.6173 40.1709 40.5185C40.2118 40.4198 40.2329 40.3139 40.2329 40.207V38.579C40.2323 37.7878 39.9178 37.0291 39.3583 36.4696C38.7988 35.9101 38.0401 35.5956 37.2489 35.595Z" fill="#5FAF86"/>
</g>
<defs>
<clipPath id="clip0_128_622">
<rect width="55" height="55" fill="white"/>
</clipPath>
</defs>
</svg>
