<svg width="61" height="61" viewBox="0 0 61 61" fill="none" xmlns="http://www.w3.org/2000/svg">
<g clip-path="url(#clip0_145_638)">
<rect width="61" height="61" rx="30.5" fill="#5FAF86"/>
<path d="M49.5625 61H11.4375C5.12019 61 0 55.8798 0 49.5625V11.4375C0 5.12019 5.12019 0 11.4375 0H49.5625C55.8798 0 61 5.12019 61 11.4375V49.5625C61 55.8798 55.8798 61 49.5625 61Z" fill="#DFEDE6"/>
<path d="M35.7372 17.7015L21.8979 24.787L16.3945 22.0801L29.9899 15.3663C30.2949 15.2119 30.6609 15.2119 30.9812 15.3663L35.7372 17.7015Z" fill="#5FAF86"/>
<path d="M44.5912 22.0801L30.5078 29.057L25.2333 26.4588L24.4727 26.0718L38.3273 18.9863L39.0898 19.3732L44.5912 22.0801Z" fill="#5FAF86"/>
<path d="M29.3791 31.0681L29.3639 45.75L15.8733 38.7102C15.494 38.5101 15.25 38.1078 15.25 37.6751V24.0912L20.9668 26.9067V31.8572C20.9668 32.492 21.4853 33.0182 22.1106 33.0182C22.7358 33.0182 23.2543 32.492 23.2543 31.8572V28.0524L24.0168 28.4241L29.3791 31.0681Z" fill="#22A562"/>
<path d="M45.7357 24.1064L31.6676 31.0528L31.6523 45.7348L45.751 38.3728L45.7357 24.1064Z" fill="#22A562"/>
</g>
<defs>
<clipPath id="clip0_145_638">
<rect width="61" height="61" rx="30.5" fill="white"/>
</clipPath>
</defs>
</svg>
