<svg width="55" height="55" viewBox="0 0 55 55" fill="none" xmlns="http://www.w3.org/2000/svg">
<g clip-path="url(#clip0_128_611)">
<g opacity="0.1">
<path d="M27.5 55C42.6878 55 55 42.6878 55 27.5C55 12.3122 42.6878 0 27.5 0C12.3122 0 0 12.3122 0 27.5C0 42.6878 12.3122 55 27.5 55Z" fill="#22A562"/>
</g>
<path d="M36.6086 22.418L35.0246 24.002C36.0259 25.833 36.3334 27.9637 35.8908 30.0032C35.4482 32.0427 34.2851 33.8543 32.6149 35.1056C30.9446 36.3569 28.8793 36.964 26.7976 36.8157C24.7159 36.6674 22.7575 35.7735 21.2816 34.298C19.8056 32.8225 18.9112 30.8643 18.7622 28.7827C18.6133 26.701 19.2199 24.6355 20.4707 22.9649C21.7215 21.2943 23.5327 20.1307 25.5721 19.6875C27.6114 19.2443 29.7422 19.5512 31.5736 20.552L33.1556 18.968C30.8946 17.5547 28.1927 17.023 25.5648 17.4742C22.937 17.9255 20.5672 19.3281 18.9072 21.4146C17.2472 23.5011 16.4133 26.1256 16.5643 28.7876C16.7154 31.4496 17.8409 33.9629 19.7262 35.8483C21.6116 37.7337 24.1249 38.8592 26.7869 39.0102C29.4489 39.1613 32.0734 38.3273 34.1599 36.6674C36.2465 35.0074 37.6491 32.6375 38.1003 30.0097C38.5515 27.3819 38.0198 24.6799 36.6066 22.419L36.6086 22.418Z" fill="#5FAF86"/>
<path d="M33.8095 25.216L32.1215 26.91C32.2395 27.3188 32.2982 27.7425 32.2955 28.168C32.2955 29.1337 32.0091 30.0778 31.4725 30.8808C30.936 31.6838 30.1734 32.3097 29.2811 32.6793C28.3889 33.0489 27.4071 33.1456 26.4598 32.9571C25.5126 32.7687 24.6426 32.3037 23.9597 31.6208C23.2768 30.9379 22.8117 30.0678 22.6233 29.1206C22.4349 28.1734 22.5316 27.1916 22.9012 26.2993C23.2708 25.4071 23.8966 24.6445 24.6996 24.1079C25.5026 23.5714 26.4467 23.285 27.4125 23.285C27.8381 23.2813 28.2619 23.3399 28.6705 23.459L30.3635 21.766C29.4386 21.3336 28.4294 21.1116 27.4085 21.116C26.0135 21.116 24.6499 21.5296 23.49 22.3046C22.3302 23.0796 21.4262 24.1811 20.8923 25.4699C20.3585 26.7587 20.2189 28.1768 20.491 29.5449C20.7631 30.9131 21.4349 32.1698 22.4212 33.1562C23.4076 34.1426 24.6644 34.8143 26.0325 35.0864C27.4006 35.3586 28.8188 35.2189 30.1075 34.6851C31.3963 34.1513 32.4978 33.2473 33.2728 32.0874C34.0478 30.9275 34.4615 29.5639 34.4615 28.169C34.4649 27.1493 34.2426 26.1415 33.8105 25.218L33.8095 25.216Z" fill="#5FAF86"/>
<path d="M27.4073 31.425C26.7636 31.425 26.1342 31.2341 25.599 30.8764C25.0637 30.5187 24.6465 30.0104 24.4001 29.4156C24.1538 28.8208 24.0893 28.1664 24.2149 27.535C24.3405 26.9036 24.6505 26.3236 25.1057 25.8683C25.5609 25.4131 26.1409 25.1031 26.7723 24.9775C27.4037 24.8519 28.0582 24.9164 28.653 25.1628C29.2478 25.4091 29.7561 25.8263 30.1138 26.3616C30.4714 26.8969 30.6623 27.5262 30.6623 28.17C30.6613 29.0329 30.318 29.8602 29.7078 30.4704C29.0976 31.0806 28.2703 31.4239 27.4073 31.425ZM27.4073 27.086C27.1928 27.0862 26.983 27.15 26.8047 27.2694C26.6264 27.3888 26.4875 27.5584 26.4056 27.7567C26.3236 27.955 26.3023 28.1732 26.3444 28.3836C26.3864 28.5941 26.49 28.7873 26.6418 28.9389C26.7937 29.0905 26.9871 29.1937 27.1977 29.2353C27.4082 29.277 27.6263 29.2553 27.8245 29.173C28.0227 29.0907 28.192 28.9515 28.311 28.7729C28.4301 28.5944 28.4935 28.3846 28.4933 28.17C28.4937 28.0271 28.4659 27.8856 28.4115 27.7535C28.3571 27.6214 28.2772 27.5013 28.1763 27.4001C28.0754 27.299 27.9556 27.2187 27.8236 27.1639C27.6917 27.1092 27.5502 27.081 27.4073 27.081V27.086Z" fill="#5FAF86"/>
<path d="M27.4072 28.984C27.2455 28.9857 27.0869 28.939 26.9518 28.8501C26.8167 28.7611 26.7112 28.6339 26.6488 28.4846C26.5864 28.3354 26.57 28.1709 26.6016 28.0122C26.6332 27.8536 26.7114 27.708 26.8262 27.594L34.9642 19.456C35.1177 19.3077 35.3234 19.2256 35.5368 19.2274C35.7503 19.2293 35.9545 19.3149 36.1054 19.4658C36.2564 19.6168 36.342 19.821 36.3438 20.0344C36.3456 20.2479 36.2636 20.4535 36.1152 20.607L27.9772 28.745C27.9021 28.8211 27.8126 28.8814 27.7138 28.9222C27.6151 28.9631 27.5091 28.9838 27.4022 28.983L27.4072 28.984Z" fill="#22A562"/>
<path d="M38.527 20.5781H35.814C35.5981 20.5781 35.3911 20.4923 35.2384 20.3396C35.0858 20.187 35 19.9799 35 19.7641V17.0471C35.0008 16.8313 35.0862 16.6244 35.238 16.4711L38.493 13.2161C38.607 13.1025 38.7521 13.0253 38.91 12.9941C39.0678 12.9629 39.2314 12.9791 39.38 13.0407C39.5286 13.1023 39.6557 13.2065 39.7452 13.3402C39.8348 13.4739 39.8827 13.6312 39.883 13.7921V15.6921H41.783C41.9439 15.6924 42.1011 15.7403 42.2348 15.8298C42.3685 15.9193 42.4727 16.0464 42.5343 16.1951C42.5959 16.3437 42.6122 16.5073 42.5809 16.6651C42.5497 16.8229 42.4725 16.968 42.359 17.0821L39.104 20.3371C38.951 20.4905 38.7436 20.5771 38.527 20.5781Z" fill="#22A562"/>
</g>
<defs>
<clipPath id="clip0_128_611">
<rect width="55" height="55" fill="white"/>
</clipPath>
</defs>
</svg>
